<?xml version="1.0" encoding="utf-8"?>
<!-- Generator: Adobe Illustrator 19.0.1, SVG Export Plug-In . SVG Version: 6.00 Build 0)  -->
<svg version="1.1" id="Слой_1" xmlns="http://www.w3.org/2000/svg" xmlns:xlink="http://www.w3.org/1999/xlink" x="0px" y="0px"
	 viewBox="0 0 560 612" style="enable-background:new 0 0 560 612;" xml:space="preserve">
<style type="text/css">
	.st0{fill:url(#SVGID_1_);}
	.st1{opacity:0.57;fill:#FFFFFF;}
	.st2{fill:url(#SVGID_2_);}
	.st3{fill:url(#SVGID_3_);}
	.st4{fill:url(#SVGID_4_);}
</style>
<g>
	<linearGradient id="SVGID_1_" gradientUnits="userSpaceOnUse" x1="148.0769" y1="312.2275" x2="400.3846" y2="312.2275">
		<stop  offset="4.926108e-003" style="stop-color:#03E673"/>
		<stop  offset="0.1407" style="stop-color:#09E17C"/>
		<stop  offset="0.3665" style="stop-color:#18D296"/>
		<stop  offset="0.6544" style="stop-color:#31BBBF"/>
		<stop  offset="0.9902" style="stop-color:#549AF8"/>
		<stop  offset="0.9944" style="stop-color:#549AF9"/>
	</linearGradient>
	<path class="st0" d="M400.4,601.4H148.1V70.6C159,61,205.4,22.5,275.7,23.1c68.5,0.5,113.5,37.7,124.7,47.6
		C400.4,247.6,400.4,424.5,400.4,601.4z"/>
	<path class="st1" d="M213,144.1h-47.5V96.7c2.6-2,11.3-8.1,24-8c12.3,0.1,20.8,6,23.5,8C213,112.5,213,128.3,213,144.1z"/>
	<path class="st1" d="M291.3,144.1h-47.5V96.7c2.6-2,11.3-8.1,24-8c12.3,0.1,20.8,6,23.5,8C291.3,112.5,291.3,128.3,291.3,144.1z"/>
	<path class="st1" d="M372.3,144.1h-47.5V96.7c2.6-2,11.3-8.1,24-8c12.3,0.1,20.8,6,23.5,8C372.3,112.5,372.3,128.3,372.3,144.1z"/>
	<path class="st1" d="M372.3,228.5h-47.5V181c2.6-2,11.3-8.1,24-8c12.3,0.1,20.8,6,23.5,8C372.3,196.8,372.3,212.6,372.3,228.5z"/>
	<path class="st1" d="M291.3,234.3h-47.5v-47.5c2.6-2,11.3-8.1,24-8c12.3,0.1,20.8,6,23.5,8C291.3,202.7,291.3,218.5,291.3,234.3z"
		/>
	<path class="st1" d="M213,234.3h-47.5v-47.5c2.6-2,11.3-8.1,24-8c12.3,0.1,20.8,6,23.5,8C213,202.7,213,218.5,213,234.3z"/>
	<path class="st1" d="M291.3,318.1h-47.5v-47.5c2.6-2,11.3-8.1,24-8c12.3,0.1,20.8,6,23.5,8C291.3,286.5,291.3,302.3,291.3,318.1z"
		/>
	<path class="st1" d="M372.3,318.1h-47.5v-47.5c2.6-2,11.3-8.1,24-8c12.3,0.1,20.8,6,23.5,8C372.3,286.5,372.3,302.3,372.3,318.1z"
		/>
	<path class="st1" d="M291.3,405.5h-47.5V358c2.6-2,11.3-8.1,24-8c12.3,0.1,20.8,6,23.5,8C291.3,373.8,291.3,389.6,291.3,405.5z"/>
	<path class="st1" d="M372.3,405.5h-47.5V358c2.6-2,11.3-8.1,24-8c12.3,0.1,20.8,6,23.5,8C372.3,373.8,372.3,389.6,372.3,405.5z"/>
	<path class="st1" d="M372.5,492.8h-47.5v-47.5c2.6-2,11.3-8.1,24-8c12.3,0.1,20.8,6,23.5,8C372.5,461.2,372.5,477,372.5,492.8z"/>
	<path class="st1" d="M291.3,492.8h-47.5v-47.5c2.6-2,11.3-8.1,24-8c12.3,0.1,20.8,6,23.5,8C291.3,461.2,291.3,477,291.3,492.8z"/>
	<path class="st1" d="M372.3,578.8h-47.5v-47.5c2.6-2,11.3-8.1,24-8c12.3,0.1,20.8,6,23.5,8C372.3,547.2,372.3,563,372.3,578.8z"/>
	<path class="st1" d="M291.3,578.8h-47.5v-47.5c2.6-2,11.3-8.1,24-8c12.3,0.1,20.8,6,23.5,8C291.3,547.2,291.3,563,291.3,578.8z"/>
	<linearGradient id="SVGID_2_" gradientUnits="userSpaceOnUse" x1="372.2821" y1="417.856" x2="535.3589" y2="417.856">
		<stop  offset="4.926108e-003" style="stop-color:#03E673"/>
		<stop  offset="0.1407" style="stop-color:#09E17C"/>
		<stop  offset="0.3665" style="stop-color:#18D296"/>
		<stop  offset="0.6544" style="stop-color:#31BBBF"/>
		<stop  offset="0.9902" style="stop-color:#549AF8"/>
		<stop  offset="0.9944" style="stop-color:#549AF9"/>
	</linearGradient>
	<path class="st2" d="M535.4,601.4H372.3V262.9c8.3-6.6,40.1-30.2,86.2-28.5c40.4,1.4,67.9,21.4,76.9,28.5
		C535.4,375.8,535.4,488.6,535.4,601.4z"/>
	<linearGradient id="SVGID_3_" gradientUnits="userSpaceOnUse" x1="48.2821" y1="390.8133" x2="228.2821" y2="390.8133">
		<stop  offset="4.926108e-003" style="stop-color:#03E673"/>
		<stop  offset="0.1407" style="stop-color:#09E17C"/>
		<stop  offset="0.3665" style="stop-color:#18D296"/>
		<stop  offset="0.6544" style="stop-color:#31BBBF"/>
		<stop  offset="0.9902" style="stop-color:#549AF8"/>
		<stop  offset="0.9944" style="stop-color:#549AF9"/>
	</linearGradient>
	<path class="st3" d="M228.3,601.4h-180V209.1c11.7-8.3,41-26.7,82.7-28.7c50.4-2.4,86.2,20.9,97.3,28.7
		C228.3,339.9,228.3,470.6,228.3,601.4z"/>
	<path class="st1" d="M441.9,329.5h-47.5V282c2.6-2,11.3-8.1,24-8c12.3,0.1,20.8,6,23.5,8C441.9,297.8,441.9,313.6,441.9,329.5z"/>
	<path class="st1" d="M512.3,329.5h-47.5V282c2.6-2,11.3-8.1,24-8c12.3,0.1,20.8,6,23.5,8C512.3,297.8,512.3,313.6,512.3,329.5z"/>
	<path class="st1" d="M441.9,400.5h-47.5V353c2.6-2,11.3-8.1,24-8c12.3,0.1,20.8,6,23.5,8C441.9,368.8,441.9,384.6,441.9,400.5z"/>
	<path class="st1" d="M512.3,400.5h-47.5V353c2.6-2,11.3-8.1,24-8c12.3,0.1,20.8,6,23.5,8C512.3,368.8,512.3,384.6,512.3,400.5z"/>
	<path class="st1" d="M441.9,473.3h-47.5v-47.5c2.6-2,11.3-8.1,24-8c12.3,0.1,20.8,6,23.5,8C441.9,441.7,441.9,457.5,441.9,473.3z"
		/>
	<path class="st1" d="M512.3,477.5h-47.5V430c2.6-2,11.3-8.1,24-8c12.3,0.1,20.8,6,23.5,8C512.3,445.8,512.3,461.6,512.3,477.5z"/>
	<path class="st1" d="M441.9,551.1h-47.5v-47.5c2.6-2,11.3-8.1,24-8c12.3,0.1,20.8,6,23.5,8C441.9,519.4,441.9,535.2,441.9,551.1z"
		/>
	<path class="st1" d="M512.3,551.1h-47.5v-47.5c2.6-2,11.3-8.1,24-8c12.3,0.1,20.8,6,23.5,8C512.3,519.4,512.3,535.2,512.3,551.1z"
		/>
	<path class="st1" d="M121,273.8H73.5v-47.5c2.6-2,11.3-8.1,24-8c12.3,0.1,20.8,6,23.5,8C121,242.2,121,258,121,273.8z"/>
	<path class="st1" d="M203,273.8h-47.5v-47.5c2.6-2,11.3-8.1,24-8c12.3,0.1,20.8,6,23.5,8C203,242.2,203,258,203,273.8z"/>
	<path class="st1" d="M121,343.7H73.5v-47.5c2.6-2,11.3-8.1,24-8c12.3,0.1,20.8,6,23.5,8C121,312.1,121,327.9,121,343.7z"/>
	<path class="st1" d="M203,343.7h-47.5v-47.5c2.6-2,11.3-8.1,24-8c12.3,0.1,20.8,6,23.5,8C203,312.1,203,327.9,203,343.7z"/>
	<path class="st1" d="M121,416.4H73.5v-47.5c2.6-2,11.3-8.1,24-8c12.3,0.1,20.8,6,23.5,8C121,384.8,121,400.6,121,416.4z"/>
	<path class="st1" d="M203,416.4h-47.5v-47.5c2.6-2,11.3-8.1,24-8c12.3,0.1,20.8,6,23.5,8C203,384.8,203,400.6,203,416.4z"/>
	<path class="st1" d="M121,490.6H73.5v-47.5c2.6-2,11.3-8.1,24-8c12.3,0.1,20.8,6,23.5,8C121,459,121,474.8,121,490.6z"/>
	<path class="st1" d="M203,490.6h-47.5v-47.5c2.6-2,11.3-8.1,24-8c12.3,0.1,20.8,6,23.5,8C203,459,203,474.8,203,490.6z"/>
	<path class="st1" d="M203,563.2h-47.5v-47.5c2.6-2,11.3-8.1,24-8c12.3,0.1,20.8,6,23.5,8C203,531.6,203,547.4,203,563.2z"/>
	<path class="st1" d="M121,563.2H73.5v-47.5c2.6-2,11.3-8.1,24-8c12.3,0.1,20.8,6,23.5,8C121,531.6,121,547.4,121,563.2z"/>
</g>
<g>
	<g>
		<linearGradient id="SVGID_4_" gradientUnits="userSpaceOnUse" x1="-327.3792" y1="394.4803" x2="-327.3792" y2="394.4803">
			<stop  offset="4.926108e-003" style="stop-color:#03E673"/>
			<stop  offset="0.1407" style="stop-color:#09E17C"/>
			<stop  offset="0.3665" style="stop-color:#18D296"/>
			<stop  offset="0.6544" style="stop-color:#31BBBF"/>
			<stop  offset="0.9902" style="stop-color:#549AF8"/>
			<stop  offset="0.9944" style="stop-color:#549AF9"/>
		</linearGradient>
		<path class="st4" d="M-327.4,396c1.9,0,1.9-3,0-3C-329.3,393-329.3,396-327.4,396L-327.4,396z"/>
	</g>
</g>
</svg>
