<?xml version="1.0" encoding="utf-8"?>
<!-- Generator: Adobe Illustrator 19.0.1, SVG Export Plug-In . SVG Version: 6.00 Build 0)  -->
<svg version="1.1" id="Слой_1" xmlns="http://www.w3.org/2000/svg" xmlns:xlink="http://www.w3.org/1999/xlink" x="0px" y="0px"
	 viewBox="0 0 800 268.2" style="enable-background:new 0 0 800 268.2;" xml:space="preserve">
<style type="text/css">
	.st0{fill:none;stroke:#FFFFFF;stroke-width:5;stroke-miterlimit:10;}
	.st1{fill:none;stroke:#FFFFFF;stroke-width:9;stroke-miterlimit:10;}
	.st2{stroke:#FFFFFF;stroke-miterlimit:10;}
	.st3{font-family:'MyriadPro-Regular';}
	.st4{font-size:9.6px;}
	.st5{fill:none;stroke:#FFFFFF;stroke-width:4;stroke-miterlimit:10;}
	.st6{fill:none;stroke:#FFFFFF;stroke-width:7;stroke-miterlimit:10;}
	.st7{font-size:12px;}
	.st8{fill:none;stroke:#FFFFFF;stroke-width:3;stroke-miterlimit:10;}
	.st9{font-size:15px;}
	.st10{font-size:10px;}
	.st11{font-size:14px;}
	.st12{font-size:17px;}
</style>
<g>
	<g>
		<path d="M-105.4,398.5c1.9,0,1.9-3,0-3C-107.3,395.5-107.3,398.5-105.4,398.5L-105.4,398.5z"/>
	</g>
</g>
<circle class="st0" cx="66.3" cy="57.7" r="35.5"/>
<path class="st0" d="M11.7,64.9c9.8,1.5,31.4,3.3,56-6.4c22.4-8.8,36.3-22.9,42.7-30.4"/>
<line class="st1" x1="45.3" y1="10" x2="110.3" y2="128.4"/>
<polygon class="st0" points="53.3,71.9 59.6,73.1 64.2,68.6 65,75 70.7,77.9 64.9,80.7 63.8,87 59.4,82.3 53,83.3 56.1,77.6 "/>
<text transform="matrix(1 0 0 1 53.0309 105.4668)"><tspan x="0" y="0" class="st2 st3 st4">СПОРТ </tspan><tspan x="0" y="11.5" class="st2 st3 st4">АРТ</tspan></text>
<g>
	<rect x="255.3" y="34.8" class="st5" width="65.1" height="57.3"/>
	<rect x="233.4" y="16.1" class="st5" width="54.4" height="51.4"/>
	<rect x="269.1" y="46" class="st5" width="31.7" height="30.7"/>
	<circle class="st6" cx="260.6" cy="99" r="28.3"/>
</g>
<g>
	<circle class="st5" cx="516" cy="72.5" r="38.7"/>
	<line class="st5" x1="530" y1="19.1" x2="465.2" y2="83.9"/>
	<line class="st5" x1="566.7" y1="45.2" x2="497" y2="114.9"/>
	<polygon class="st5" points="511.9,94 500.4,74 511.9,54 534.8,54 546.2,74 534.8,94 	"/>
	<ellipse class="st5" cx="487.2" cy="27.5" rx="9.8" ry="8.4"/>
</g>
<text transform="matrix(1 0 0 1 526.0002 33.7774)" class="st2 st3 st7">Абстракт</text>
<line class="st5" x1="421.2" y1="50.9" x2="499.3" y2="137.9"/>
<rect x="696" y="21.8" class="st8" width="30" height="106.1"/>
<rect x="714" y="57.3" class="st5" width="25.3" height="81.8"/>
<rect x="732" y="20.7" class="st8" width="33.3" height="103.1"/>
<text transform="matrix(1 0 0 1 666 92.7333)"><tspan x="0" y="0" class="st2 st3 st9">Строй </tspan><tspan x="0" y="18" class="st2 st3 st9">ДОМ</tspan></text>
<circle class="st8" cx="70.3" cy="209.5" r="33"/>
<rect x="46" y="153.9" class="st8" width="47.3" height="47.3"/>
<line class="st5" x1="55" y1="217" x2="86" y2="217"/>
<line class="st5" x1="78" y1="189" x2="63" y2="189"/>
<text transform="matrix(1 0 0 1 63 228.3667)"><tspan x="0" y="0" class="st2 st3 st10">МИР </tspan><tspan x="0" y="12" class="st2 st3 st10">ТРУД </tspan><tspan x="0" y="24" class="st2 st3 st10">СТРОЙ</tspan></text>
<line class="st5" x1="256.8" y1="155.9" x2="213.4" y2="235.1"/>
<line class="st5" x1="276.3" y1="155.9" x2="325.7" y2="240.5"/>
<line class="st5" x1="267" y1="157" x2="267" y2="216"/>
<text transform="matrix(1 0 0 1 241.5 222.6167)"><tspan x="0" y="0" class="st2 st3 st11">ДОРОГИ  </tspan><tspan x="0" y="16.8" class="st2 st3 st11">РОССИИ</tspan></text>
<g>
	<circle class="st5" cx="738.7" cy="211.5" r="36"/>
	<circle class="st5" cx="716.6" cy="183.1" r="27.3"/>
	<line class="st5" x1="702.7" y1="237.5" x2="748" y2="155.9"/>
	<line class="st5" x1="702.7" y1="162.9" x2="748" y2="230.9"/>
	<rect x="672.3" y="183.1" class="st5" width="44.3" height="43.1"/>
</g>
<rect x="464.3" y="162.9" class="st5" width="86.7" height="86.7"/>
<rect x="510.3" y="152.9" class="st5" width="57.8" height="53.3"/>
<text transform="matrix(1 0 0 1 478.5637 206.2)"><tspan x="0" y="0" class="st2 st3 st12">Для</tspan><tspan x="0" y="20.4" class="st2 st3 st12">Семьи </tspan></text>
</svg>
